# xmcd
# 
# Track frame offsets:
#     182
#     28747
#     47905
#     86885
#     112270
#     137567
#     151742
#     169657
#     184042
#     207647
#     220655
#     250795
#     272720
# 
# Disc length: 3875
# 
# Revision: 4
# Processed by: cddbd v1.5.2PL0 Copyright (c) Steve Scherf et al.
# Submitted via: fre:ac v1.0.17
# 
DISCID=bc0f210d
DTITLE=Buddy Guy - Buddy Guy
DYEAR=0
DGENRE=
TTITLE0=A Man and the Blues
TTITLE1=My Time after awhile
TTITLE2=Come see about me
TTITLE3=Sweet little Angel
TTITLE4=One Room Country Shack
TTITLE5=This old Fool
TTITLE6=I got my Eyes on you
TTITLE7=A poor Man's plea
TTITLE8=Watermelon Man
TTITLE9=Money (That's what I want)
TTITLE10=You give me Fever
TTITLE11=Knock on Wood
TTITLE12=A Man of many Words
EXTD=Warner Blues - Les Incontournables\n(French edition)
EXTT0=
EXTT1=
EXTT2=
EXTT3=
EXTT4=
EXTT5=
EXTT6=
EXTT7=
EXTT8=
EXTT9=
EXTT10=
EXTT11=
EXTT12=
PLAYORDER=
